<svg width="252" height="38" viewBox="0 0 252 38" fill="none" xmlns="http://www.w3.org/2000/svg">
<path d="M45.512 27.875V11.075H53.408C54.544 11.075 55.536 11.267 56.384 11.651C57.232 12.035 57.896 12.579 58.376 13.283C58.856 13.971 59.096 14.771 59.096 15.683C59.096 16.419 58.904 17.099 58.52 17.723C58.152 18.331 57.648 18.827 57.008 19.211C57.824 19.595 58.472 20.115 58.952 20.771C59.432 21.427 59.672 22.171 59.672 23.003C59.672 23.963 59.424 24.811 58.928 25.547C58.448 26.283 57.76 26.859 56.864 27.275C55.984 27.675 54.96 27.875 53.792 27.875H45.512ZM48.992 17.939H53.192C53.944 17.939 54.536 17.763 54.968 17.411C55.416 17.043 55.64 16.555 55.64 15.947C55.64 15.339 55.416 14.859 54.968 14.507C54.536 14.139 53.944 13.955 53.192 13.955H48.992V17.939ZM48.992 24.995H53.528C54.328 24.995 54.968 24.803 55.448 24.419C55.928 24.019 56.168 23.491 56.168 22.835C56.168 22.163 55.928 21.635 55.448 21.251C54.968 20.851 54.328 20.651 53.528 20.651H48.992V24.995ZM67.5114 28.115C66.2634 28.115 65.1354 27.827 64.1274 27.251C63.1194 26.675 62.3194 25.899 61.7274 24.923C61.1354 23.947 60.8394 22.851 60.8394 21.635C60.8394 20.419 61.1274 19.323 61.7034 18.347C62.2954 17.355 63.0954 16.571 64.1034 15.995C65.1274 15.419 66.2634 15.131 67.5114 15.131C68.7594 15.131 69.8874 15.419 70.8954 15.995C71.9194 16.571 72.7194 17.355 73.2954 18.347C73.8874 19.323 74.1834 20.419 74.1834 21.635C74.1834 22.851 73.8874 23.947 73.2954 24.923C72.7194 25.899 71.9274 26.675 70.9194 27.251C69.9114 27.827 68.7754 28.115 67.5114 28.115ZM67.5114 25.259C68.1674 25.259 68.7514 25.099 69.2634 24.779C69.7914 24.459 70.2074 24.027 70.5114 23.483C70.8314 22.923 70.9914 22.307 70.9914 21.635C70.9914 20.947 70.8314 20.331 70.5114 19.787C70.2074 19.243 69.7914 18.811 69.2634 18.491C68.7514 18.155 68.1674 17.987 67.5114 17.987C66.8714 17.987 66.2874 18.155 65.7594 18.491C65.2314 18.811 64.8154 19.243 64.5114 19.787C64.2074 20.331 64.0554 20.947 64.0554 21.635C64.0554 22.307 64.2074 22.923 64.5114 23.483C64.8154 24.027 65.2314 24.459 65.7594 24.779C66.2874 25.099 66.8714 25.259 67.5114 25.259ZM80.8124 28.115C79.8524 28.115 78.9964 27.907 78.2444 27.491C77.5084 27.059 76.9244 26.467 76.4924 25.715C76.0764 24.963 75.8684 24.099 75.8684 23.123V15.371H79.1564V22.643C79.1564 23.443 79.3884 24.083 79.8524 24.563C80.3324 25.043 80.9724 25.283 81.7724 25.283C82.3164 25.283 82.8044 25.179 83.2364 24.971C83.6844 24.747 84.0524 24.435 84.3404 24.035V15.371H87.6284V27.875H84.3404V26.867C83.3804 27.699 82.2044 28.115 80.8124 28.115ZM89.951 27.875V15.371H93.239V16.763C93.639 16.219 94.119 15.803 94.679 15.515C95.239 15.227 95.871 15.083 96.575 15.083C97.183 15.099 97.639 15.195 97.943 15.371V18.251C97.703 18.139 97.439 18.059 97.151 18.011C96.863 17.947 96.567 17.915 96.263 17.915C95.623 17.915 95.039 18.075 94.511 18.395C93.983 18.715 93.559 19.171 93.239 19.763V27.875H89.951ZM104.329 28.115C103.177 28.115 102.113 27.971 101.137 27.683C100.161 27.379 99.3125 26.947 98.5925 26.387L100.225 24.203C100.945 24.683 101.633 25.043 102.289 25.283C102.961 25.523 103.625 25.643 104.281 25.643C105.017 25.643 105.601 25.523 106.033 25.283C106.481 25.027 106.705 24.699 106.705 24.299C106.705 23.979 106.577 23.723 106.321 23.531C106.081 23.339 105.689 23.203 105.145 23.123L102.745 22.763C101.497 22.571 100.553 22.171 99.9125 21.563C99.2725 20.939 98.9525 20.123 98.9525 19.115C98.9525 18.299 99.1605 17.603 99.5765 17.027C100.009 16.435 100.609 15.979 101.377 15.659C102.161 15.323 103.089 15.155 104.161 15.155C105.073 15.155 105.961 15.283 106.825 15.539C107.705 15.795 108.529 16.187 109.297 16.715L107.713 18.851C107.025 18.419 106.369 18.107 105.745 17.915C105.121 17.723 104.489 17.627 103.849 17.627C103.257 17.627 102.777 17.739 102.409 17.963C102.057 18.187 101.881 18.483 101.881 18.851C101.881 19.187 102.009 19.451 102.265 19.643C102.521 19.835 102.961 19.971 103.585 20.051L105.961 20.411C107.209 20.587 108.161 20.987 108.817 21.611C109.473 22.219 109.801 23.011 109.801 23.987C109.801 24.787 109.561 25.499 109.081 26.123C108.601 26.731 107.953 27.219 107.137 27.587C106.321 27.939 105.385 28.115 104.329 28.115ZM117.435 28.115C116.187 28.115 115.051 27.827 114.027 27.251C113.019 26.675 112.219 25.899 111.627 24.923C111.035 23.947 110.739 22.851 110.739 21.635C110.739 20.419 111.019 19.323 111.579 18.347C112.155 17.371 112.931 16.595 113.907 16.019C114.883 15.443 115.971 15.155 117.171 15.155C118.371 15.155 119.435 15.451 120.363 16.043C121.291 16.635 122.019 17.435 122.547 18.443C123.091 19.451 123.363 20.595 123.363 21.875V22.739H114.099C114.243 23.235 114.475 23.683 114.795 24.083C115.131 24.483 115.539 24.795 116.019 25.019C116.515 25.243 117.043 25.355 117.603 25.355C118.163 25.355 118.675 25.267 119.139 25.091C119.619 24.915 120.027 24.667 120.363 24.347L122.523 26.315C121.755 26.939 120.963 27.395 120.147 27.683C119.347 27.971 118.443 28.115 117.435 28.115ZM114.051 20.387H120.123C120.011 19.891 119.803 19.459 119.499 19.091C119.211 18.707 118.859 18.411 118.443 18.203C118.043 17.979 117.595 17.867 117.099 17.867C116.587 17.867 116.123 17.971 115.707 18.179C115.291 18.387 114.939 18.683 114.651 19.067C114.379 19.435 114.179 19.875 114.051 20.387ZM133.709 28.091C132.813 28.091 132.021 27.931 131.333 27.611C130.645 27.275 130.109 26.819 129.725 26.243C129.341 25.667 129.149 25.003 129.149 24.251C129.149 23.051 129.597 22.123 130.493 21.467C131.405 20.795 132.653 20.459 134.237 20.459C135.325 20.459 136.349 20.627 137.309 20.963V20.051C137.309 19.331 137.085 18.787 136.637 18.419C136.189 18.051 135.533 17.867 134.669 17.867C134.141 17.867 133.573 17.955 132.965 18.131C132.357 18.291 131.653 18.547 130.853 18.899L129.653 16.475C130.645 16.027 131.589 15.691 132.485 15.467C133.397 15.243 134.309 15.131 135.221 15.131C136.901 15.131 138.205 15.539 139.133 16.355C140.077 17.155 140.549 18.291 140.549 19.763V27.875H137.309V26.987C136.797 27.371 136.245 27.651 135.653 27.827C135.061 28.003 134.413 28.091 133.709 28.091ZM132.269 24.179C132.269 24.659 132.477 25.043 132.893 25.331C133.309 25.603 133.861 25.739 134.549 25.739C135.093 25.739 135.597 25.675 136.061 25.547C136.525 25.403 136.941 25.195 137.309 24.923V23.099C136.909 22.939 136.493 22.819 136.061 22.739C135.629 22.659 135.165 22.619 134.669 22.619C133.917 22.619 133.325 22.763 132.893 23.051C132.477 23.323 132.269 23.699 132.269 24.179ZM147.529 28.115C146.569 28.115 145.713 27.907 144.961 27.491C144.225 27.059 143.641 26.467 143.209 25.715C142.793 24.963 142.585 24.099 142.585 23.123V15.371H145.873V22.643C145.873 23.443 146.105 24.083 146.569 24.563C147.049 25.043 147.689 25.283 148.489 25.283C149.033 25.283 149.521 25.179 149.953 24.971C150.401 24.747 150.769 24.435 151.057 24.035V15.371H154.345V27.875H151.057V26.867C150.097 27.699 148.921 28.115 147.529 28.115ZM155.323 27.875L160.123 21.515L155.443 15.371H159.259L162.019 19.091L164.755 15.371H168.451L163.843 21.467L168.739 27.875H164.899L161.947 23.891L158.995 27.875H155.323ZM180.544 28.115C179.184 28.115 177.856 27.867 176.56 27.371C175.264 26.859 174.112 26.139 173.104 25.211L175.096 22.715C176.072 23.579 177.008 24.203 177.904 24.587C178.816 24.971 179.776 25.163 180.784 25.163C181.488 25.163 182.096 25.083 182.608 24.923C183.12 24.747 183.512 24.499 183.784 24.179C184.072 23.859 184.216 23.483 184.216 23.051C184.216 22.475 184.008 22.035 183.592 21.731C183.176 21.411 182.464 21.163 181.456 20.987L178.12 20.411C176.696 20.171 175.608 19.667 174.856 18.899C174.12 18.131 173.752 17.139 173.752 15.923C173.752 14.883 174.016 13.979 174.544 13.211C175.088 12.443 175.848 11.859 176.824 11.459C177.816 11.043 178.992 10.835 180.352 10.835C181.584 10.835 182.808 11.043 184.024 11.459C185.256 11.875 186.344 12.451 187.288 13.187L185.416 15.779C183.656 14.435 181.888 13.763 180.112 13.763C179.488 13.763 178.944 13.843 178.48 14.003C178.016 14.163 177.656 14.387 177.4 14.675C177.16 14.947 177.04 15.275 177.04 15.659C177.04 16.171 177.224 16.571 177.592 16.859C177.96 17.131 178.576 17.339 179.44 17.483L182.608 18.011C184.288 18.283 185.544 18.819 186.376 19.619C187.208 20.403 187.624 21.443 187.624 22.739C187.624 23.827 187.336 24.779 186.76 25.595C186.184 26.395 185.36 27.019 184.288 27.467C183.232 27.899 181.984 28.115 180.544 28.115ZM194.805 28.067C193.413 28.067 192.357 27.755 191.637 27.131C190.933 26.491 190.581 25.563 190.581 24.347V18.107H188.013V15.371H190.581V12.179L193.869 11.435V15.371H197.445V18.107H193.869V23.675C193.869 24.251 193.997 24.667 194.253 24.923C194.509 25.163 194.957 25.283 195.597 25.283C195.917 25.283 196.205 25.267 196.461 25.235C196.733 25.187 197.029 25.107 197.349 24.995V27.707C197.013 27.819 196.589 27.907 196.077 27.971C195.581 28.035 195.157 28.067 194.805 28.067ZM202.793 28.091C201.897 28.091 201.105 27.931 200.417 27.611C199.729 27.275 199.193 26.819 198.809 26.243C198.425 25.667 198.233 25.003 198.233 24.251C198.233 23.051 198.681 22.123 199.577 21.467C200.489 20.795 201.737 20.459 203.321 20.459C204.409 20.459 205.433 20.627 206.393 20.963V20.051C206.393 19.331 206.169 18.787 205.721 18.419C205.273 18.051 204.617 17.867 203.753 17.867C203.225 17.867 202.657 17.955 202.049 18.131C201.441 18.291 200.737 18.547 199.937 18.899L198.737 16.475C199.729 16.027 200.673 15.691 201.569 15.467C202.481 15.243 203.393 15.131 204.305 15.131C205.985 15.131 207.289 15.539 208.217 16.355C209.161 17.155 209.633 18.291 209.633 19.763V27.875H206.393V26.987C205.881 27.371 205.329 27.651 204.737 27.827C204.145 28.003 203.497 28.091 202.793 28.091ZM201.353 24.179C201.353 24.659 201.561 25.043 201.977 25.331C202.393 25.603 202.945 25.739 203.633 25.739C204.177 25.739 204.681 25.675 205.145 25.547C205.609 25.403 206.025 25.195 206.393 24.923V23.099C205.993 22.939 205.577 22.819 205.145 22.739C204.713 22.659 204.249 22.619 203.753 22.619C203.001 22.619 202.409 22.763 201.977 23.051C201.561 23.323 201.353 23.699 201.353 24.179ZM218.169 33.011C217.209 33.011 216.281 32.907 215.385 32.699C214.489 32.507 213.681 32.227 212.961 31.859L214.113 29.315C214.801 29.651 215.473 29.899 216.129 30.059C216.785 30.219 217.441 30.299 218.097 30.299C219.073 30.299 219.809 30.091 220.305 29.675C220.817 29.259 221.073 28.635 221.073 27.803V26.819C220.049 27.571 218.905 27.947 217.641 27.947C216.457 27.947 215.385 27.667 214.425 27.107C213.481 26.531 212.721 25.755 212.145 24.779C211.585 23.803 211.305 22.723 211.305 21.539C211.305 20.355 211.585 19.283 212.145 18.323C212.721 17.363 213.497 16.603 214.473 16.043C215.449 15.467 216.537 15.179 217.737 15.179C218.345 15.179 218.937 15.267 219.513 15.443C220.089 15.619 220.625 15.867 221.121 16.187V15.371H224.361V27.851C224.361 29.499 223.825 30.771 222.753 31.667C221.697 32.563 220.169 33.011 218.169 33.011ZM218.145 25.163C218.753 25.163 219.305 25.067 219.801 24.875C220.297 24.667 220.721 24.379 221.073 24.011V19.115C220.721 18.763 220.289 18.491 219.777 18.299C219.281 18.091 218.745 17.987 218.169 17.987C217.481 17.987 216.865 18.147 216.321 18.467C215.777 18.771 215.345 19.195 215.025 19.739C214.705 20.267 214.545 20.867 214.545 21.539C214.545 22.227 214.697 22.843 215.001 23.387C215.321 23.931 215.753 24.363 216.297 24.683C216.857 25.003 217.473 25.163 218.145 25.163ZM232.808 28.115C231.56 28.115 230.424 27.827 229.4 27.251C228.392 26.675 227.592 25.899 227 24.923C226.408 23.947 226.112 22.851 226.112 21.635C226.112 20.419 226.392 19.323 226.952 18.347C227.528 17.371 228.304 16.595 229.28 16.019C230.256 15.443 231.344 15.155 232.544 15.155C233.744 15.155 234.808 15.451 235.736 16.043C236.664 16.635 237.392 17.435 237.92 18.443C238.464 19.451 238.736 20.595 238.736 21.875V22.739H229.472C229.616 23.235 229.848 23.683 230.168 24.083C230.504 24.483 230.912 24.795 231.392 25.019C231.888 25.243 232.416 25.355 232.976 25.355C233.536 25.355 234.048 25.267 234.512 25.091C234.992 24.915 235.4 24.667 235.736 24.347L237.896 26.315C237.128 26.939 236.336 27.395 235.52 27.683C234.72 27.971 233.816 28.115 232.808 28.115ZM229.424 20.387H235.496C235.384 19.891 235.176 19.459 234.872 19.091C234.584 18.707 234.232 18.411 233.816 18.203C233.416 17.979 232.968 17.867 232.472 17.867C231.96 17.867 231.496 17.971 231.08 18.179C230.664 18.387 230.312 18.683 230.024 19.067C229.752 19.435 229.552 19.875 229.424 20.387ZM245.308 28.115C244.156 28.115 243.092 27.971 242.116 27.683C241.14 27.379 240.292 26.947 239.572 26.387L241.204 24.203C241.924 24.683 242.612 25.043 243.268 25.283C243.94 25.523 244.604 25.643 245.26 25.643C245.996 25.643 246.58 25.523 247.012 25.283C247.46 25.027 247.684 24.699 247.684 24.299C247.684 23.979 247.556 23.723 247.3 23.531C247.06 23.339 246.668 23.203 246.124 23.123L243.724 22.763C242.476 22.571 241.532 22.171 240.892 21.563C240.252 20.939 239.932 20.123 239.932 19.115C239.932 18.299 240.14 17.603 240.556 17.027C240.988 16.435 241.588 15.979 242.356 15.659C243.14 15.323 244.068 15.155 245.14 15.155C246.052 15.155 246.94 15.283 247.804 15.539C248.684 15.795 249.508 16.187 250.276 16.715L248.692 18.851C248.004 18.419 247.348 18.107 246.724 17.915C246.1 17.723 245.468 17.627 244.828 17.627C244.236 17.627 243.756 17.739 243.388 17.963C243.036 18.187 242.86 18.483 242.86 18.851C242.86 19.187 242.988 19.451 243.244 19.643C243.5 19.835 243.94 19.971 244.564 20.051L246.94 20.411C248.188 20.587 249.14 20.987 249.796 21.611C250.452 22.219 250.78 23.011 250.78 23.987C250.78 24.787 250.54 25.499 250.06 26.123C249.58 26.731 248.932 27.219 248.116 27.587C247.3 27.939 246.364 28.115 245.308 28.115Z" fill="#25324B"/>
<g clip-path="url(#clip0_160_1331)">
<path d="M17.5107 37.1464C27.1816 37.1464 35.0214 29.3066 35.0214 19.6357C35.0214 9.9648 27.1816 2.125 17.5107 2.125C7.8398 2.125 0 9.9648 0 19.6357C0 29.3066 7.8398 37.1464 17.5107 37.1464Z" fill="#4640DE"/>
<path d="M17.6171 25.9216C15.8425 25.9216 14.3459 25.5367 13.1272 24.7884C11.9085 24.0401 11.0533 23.0138 10.5615 21.731L13.5976 20.0633C14.3031 21.7951 15.6715 22.6503 17.724 22.6503C18.7075 22.6503 19.4345 22.4793 19.9048 22.1372C20.3752 21.7951 20.589 21.3675 20.589 20.8544C20.589 20.2557 20.3111 19.7853 19.7338 19.4646C19.1779 19.1439 18.1516 18.7805 16.6977 18.3956C15.8853 18.1604 15.2225 17.9466 14.6666 17.7114C14.1107 17.4762 13.5548 17.1769 12.9989 16.8134C12.443 16.4286 12.0154 15.9582 11.7375 15.381C11.4595 14.8037 11.3098 14.1195 11.3098 13.3498C11.3098 11.8104 11.8871 10.5917 13.0417 9.69372C14.1962 8.79574 15.586 8.32536 17.2109 8.32536C18.6648 8.32536 19.9476 8.66745 21.038 9.33025C22.1498 9.99305 23.005 10.9338 23.6251 12.1311L20.6532 13.756C19.9262 12.3021 18.793 11.5752 17.2109 11.5752C16.4839 11.5752 15.9067 11.7249 15.4791 12.0456C15.0514 12.3663 14.859 12.7725 14.859 13.2643C14.859 13.7988 15.0942 14.2264 15.5646 14.5471C16.035 14.8678 16.9329 15.2313 18.2799 15.6161C18.8358 15.7872 19.242 15.8941 19.52 16.001C19.7979 16.0865 20.1828 16.2362 20.6745 16.4072C21.1663 16.5996 21.5298 16.7707 21.8077 16.9204C22.0643 17.0914 22.385 17.3052 22.7271 17.5832C23.0692 17.8611 23.3257 18.139 23.5182 18.4384C23.7106 18.7377 23.8602 19.0798 23.9885 19.486C24.1168 19.8923 24.1809 20.3412 24.1809 20.833C24.1809 22.3938 23.5823 23.6339 22.3636 24.5532C21.1663 25.4726 19.5841 25.9216 17.6599 25.9216H17.6171Z" fill="white"/>
<path d="M17.5109 32.3144C20.3118 32.3144 23.134 30.0908 24.9514 28.2948C25.379 27.8672 24.8658 27.2686 24.3313 27.5465C22.3429 28.5942 19.6276 29.7915 17.4895 29.7915C15.3515 29.7915 12.6361 28.5942 10.6478 27.5465C10.1132 27.2686 9.62149 27.8672 10.0277 28.2948C11.8451 30.1122 14.6673 32.3144 17.4682 32.3144H17.5109Z" fill="#26A4FF"/>
</g>
<path d="M45.512 27.875V11.075H53.408C54.544 11.075 55.536 11.267 56.384 11.651C57.232 12.035 57.896 12.579 58.376 13.283C58.856 13.971 59.096 14.771 59.096 15.683C59.096 16.419 58.904 17.099 58.52 17.723C58.152 18.331 57.648 18.827 57.008 19.211C57.824 19.595 58.472 20.115 58.952 20.771C59.432 21.427 59.672 22.171 59.672 23.003C59.672 23.963 59.424 24.811 58.928 25.547C58.448 26.283 57.76 26.859 56.864 27.275C55.984 27.675 54.96 27.875 53.792 27.875H45.512ZM48.992 17.939H53.192C53.944 17.939 54.536 17.763 54.968 17.411C55.416 17.043 55.64 16.555 55.64 15.947C55.64 15.339 55.416 14.859 54.968 14.507C54.536 14.139 53.944 13.955 53.192 13.955H48.992V17.939ZM48.992 24.995H53.528C54.328 24.995 54.968 24.803 55.448 24.419C55.928 24.019 56.168 23.491 56.168 22.835C56.168 22.163 55.928 21.635 55.448 21.251C54.968 20.851 54.328 20.651 53.528 20.651H48.992V24.995ZM67.5114 28.115C66.2634 28.115 65.1354 27.827 64.1274 27.251C63.1194 26.675 62.3194 25.899 61.7274 24.923C61.1354 23.947 60.8394 22.851 60.8394 21.635C60.8394 20.419 61.1274 19.323 61.7034 18.347C62.2954 17.355 63.0954 16.571 64.1034 15.995C65.1274 15.419 66.2634 15.131 67.5114 15.131C68.7594 15.131 69.8874 15.419 70.8954 15.995C71.9194 16.571 72.7194 17.355 73.2954 18.347C73.8874 19.323 74.1834 20.419 74.1834 21.635C74.1834 22.851 73.8874 23.947 73.2954 24.923C72.7194 25.899 71.9274 26.675 70.9194 27.251C69.9114 27.827 68.7754 28.115 67.5114 28.115ZM67.5114 25.259C68.1674 25.259 68.7514 25.099 69.2634 24.779C69.7914 24.459 70.2074 24.027 70.5114 23.483C70.8314 22.923 70.9914 22.307 70.9914 21.635C70.9914 20.947 70.8314 20.331 70.5114 19.787C70.2074 19.243 69.7914 18.811 69.2634 18.491C68.7514 18.155 68.1674 17.987 67.5114 17.987C66.8714 17.987 66.2874 18.155 65.7594 18.491C65.2314 18.811 64.8154 19.243 64.5114 19.787C64.2074 20.331 64.0554 20.947 64.0554 21.635C64.0554 22.307 64.2074 22.923 64.5114 23.483C64.8154 24.027 65.2314 24.459 65.7594 24.779C66.2874 25.099 66.8714 25.259 67.5114 25.259ZM80.8124 28.115C79.8524 28.115 78.9964 27.907 78.2444 27.491C77.5084 27.059 76.9244 26.467 76.4924 25.715C76.0764 24.963 75.8684 24.099 75.8684 23.123V15.371H79.1564V22.643C79.1564 23.443 79.3884 24.083 79.8524 24.563C80.3324 25.043 80.9724 25.283 81.7724 25.283C82.3164 25.283 82.8044 25.179 83.2364 24.971C83.6844 24.747 84.0524 24.435 84.3404 24.035V15.371H87.6284V27.875H84.3404V26.867C83.3804 27.699 82.2044 28.115 80.8124 28.115ZM89.951 27.875V15.371H93.239V16.763C93.639 16.219 94.119 15.803 94.679 15.515C95.239 15.227 95.871 15.083 96.575 15.083C97.183 15.099 97.639 15.195 97.943 15.371V18.251C97.703 18.139 97.439 18.059 97.151 18.011C96.863 17.947 96.567 17.915 96.263 17.915C95.623 17.915 95.039 18.075 94.511 18.395C93.983 18.715 93.559 19.171 93.239 19.763V27.875H89.951ZM104.329 28.115C103.177 28.115 102.113 27.971 101.137 27.683C100.161 27.379 99.3125 26.947 98.5925 26.387L100.225 24.203C100.945 24.683 101.633 25.043 102.289 25.283C102.961 25.523 103.625 25.643 104.281 25.643C105.017 25.643 105.601 25.523 106.033 25.283C106.481 25.027 106.705 24.699 106.705 24.299C106.705 23.979 106.577 23.723 106.321 23.531C106.081 23.339 105.689 23.203 105.145 23.123L102.745 22.763C101.497 22.571 100.553 22.171 99.9125 21.563C99.2725 20.939 98.9525 20.123 98.9525 19.115C98.9525 18.299 99.1605 17.603 99.5765 17.027C100.009 16.435 100.609 15.979 101.377 15.659C102.161 15.323 103.089 15.155 104.161 15.155C105.073 15.155 105.961 15.283 106.825 15.539C107.705 15.795 108.529 16.187 109.297 16.715L107.713 18.851C107.025 18.419 106.369 18.107 105.745 17.915C105.121 17.723 104.489 17.627 103.849 17.627C103.257 17.627 102.777 17.739 102.409 17.963C102.057 18.187 101.881 18.483 101.881 18.851C101.881 19.187 102.009 19.451 102.265 19.643C102.521 19.835 102.961 19.971 103.585 20.051L105.961 20.411C107.209 20.587 108.161 20.987 108.817 21.611C109.473 22.219 109.801 23.011 109.801 23.987C109.801 24.787 109.561 25.499 109.081 26.123C108.601 26.731 107.953 27.219 107.137 27.587C106.321 27.939 105.385 28.115 104.329 28.115ZM117.435 28.115C116.187 28.115 115.051 27.827 114.027 27.251C113.019 26.675 112.219 25.899 111.627 24.923C111.035 23.947 110.739 22.851 110.739 21.635C110.739 20.419 111.019 19.323 111.579 18.347C112.155 17.371 112.931 16.595 113.907 16.019C114.883 15.443 115.971 15.155 117.171 15.155C118.371 15.155 119.435 15.451 120.363 16.043C121.291 16.635 122.019 17.435 122.547 18.443C123.091 19.451 123.363 20.595 123.363 21.875V22.739H114.099C114.243 23.235 114.475 23.683 114.795 24.083C115.131 24.483 115.539 24.795 116.019 25.019C116.515 25.243 117.043 25.355 117.603 25.355C118.163 25.355 118.675 25.267 119.139 25.091C119.619 24.915 120.027 24.667 120.363 24.347L122.523 26.315C121.755 26.939 120.963 27.395 120.147 27.683C119.347 27.971 118.443 28.115 117.435 28.115ZM114.051 20.387H120.123C120.011 19.891 119.803 19.459 119.499 19.091C119.211 18.707 118.859 18.411 118.443 18.203C118.043 17.979 117.595 17.867 117.099 17.867C116.587 17.867 116.123 17.971 115.707 18.179C115.291 18.387 114.939 18.683 114.651 19.067C114.379 19.435 114.179 19.875 114.051 20.387ZM133.709 28.091C132.813 28.091 132.021 27.931 131.333 27.611C130.645 27.275 130.109 26.819 129.725 26.243C129.341 25.667 129.149 25.003 129.149 24.251C129.149 23.051 129.597 22.123 130.493 21.467C131.405 20.795 132.653 20.459 134.237 20.459C135.325 20.459 136.349 20.627 137.309 20.963V20.051C137.309 19.331 137.085 18.787 136.637 18.419C136.189 18.051 135.533 17.867 134.669 17.867C134.141 17.867 133.573 17.955 132.965 18.131C132.357 18.291 131.653 18.547 130.853 18.899L129.653 16.475C130.645 16.027 131.589 15.691 132.485 15.467C133.397 15.243 134.309 15.131 135.221 15.131C136.901 15.131 138.205 15.539 139.133 16.355C140.077 17.155 140.549 18.291 140.549 19.763V27.875H137.309V26.987C136.797 27.371 136.245 27.651 135.653 27.827C135.061 28.003 134.413 28.091 133.709 28.091ZM132.269 24.179C132.269 24.659 132.477 25.043 132.893 25.331C133.309 25.603 133.861 25.739 134.549 25.739C135.093 25.739 135.597 25.675 136.061 25.547C136.525 25.403 136.941 25.195 137.309 24.923V23.099C136.909 22.939 136.493 22.819 136.061 22.739C135.629 22.659 135.165 22.619 134.669 22.619C133.917 22.619 133.325 22.763 132.893 23.051C132.477 23.323 132.269 23.699 132.269 24.179ZM147.529 28.115C146.569 28.115 145.713 27.907 144.961 27.491C144.225 27.059 143.641 26.467 143.209 25.715C142.793 24.963 142.585 24.099 142.585 23.123V15.371H145.873V22.643C145.873 23.443 146.105 24.083 146.569 24.563C147.049 25.043 147.689 25.283 148.489 25.283C149.033 25.283 149.521 25.179 149.953 24.971C150.401 24.747 150.769 24.435 151.057 24.035V15.371H154.345V27.875H151.057V26.867C150.097 27.699 148.921 28.115 147.529 28.115ZM155.323 27.875L160.123 21.515L155.443 15.371H159.259L162.019 19.091L164.755 15.371H168.451L163.843 21.467L168.739 27.875H164.899L161.947 23.891L158.995 27.875H155.323ZM180.544 28.115C179.184 28.115 177.856 27.867 176.56 27.371C175.264 26.859 174.112 26.139 173.104 25.211L175.096 22.715C176.072 23.579 177.008 24.203 177.904 24.587C178.816 24.971 179.776 25.163 180.784 25.163C181.488 25.163 182.096 25.083 182.608 24.923C183.12 24.747 183.512 24.499 183.784 24.179C184.072 23.859 184.216 23.483 184.216 23.051C184.216 22.475 184.008 22.035 183.592 21.731C183.176 21.411 182.464 21.163 181.456 20.987L178.12 20.411C176.696 20.171 175.608 19.667 174.856 18.899C174.12 18.131 173.752 17.139 173.752 15.923C173.752 14.883 174.016 13.979 174.544 13.211C175.088 12.443 175.848 11.859 176.824 11.459C177.816 11.043 178.992 10.835 180.352 10.835C181.584 10.835 182.808 11.043 184.024 11.459C185.256 11.875 186.344 12.451 187.288 13.187L185.416 15.779C183.656 14.435 181.888 13.763 180.112 13.763C179.488 13.763 178.944 13.843 178.48 14.003C178.016 14.163 177.656 14.387 177.4 14.675C177.16 14.947 177.04 15.275 177.04 15.659C177.04 16.171 177.224 16.571 177.592 16.859C177.96 17.131 178.576 17.339 179.44 17.483L182.608 18.011C184.288 18.283 185.544 18.819 186.376 19.619C187.208 20.403 187.624 21.443 187.624 22.739C187.624 23.827 187.336 24.779 186.76 25.595C186.184 26.395 185.36 27.019 184.288 27.467C183.232 27.899 181.984 28.115 180.544 28.115ZM194.805 28.067C193.413 28.067 192.357 27.755 191.637 27.131C190.933 26.491 190.581 25.563 190.581 24.347V18.107H188.013V15.371H190.581V12.179L193.869 11.435V15.371H197.445V18.107H193.869V23.675C193.869 24.251 193.997 24.667 194.253 24.923C194.509 25.163 194.957 25.283 195.597 25.283C195.917 25.283 196.205 25.267 196.461 25.235C196.733 25.187 197.029 25.107 197.349 24.995V27.707C197.013 27.819 196.589 27.907 196.077 27.971C195.581 28.035 195.157 28.067 194.805 28.067ZM202.793 28.091C201.897 28.091 201.105 27.931 200.417 27.611C199.729 27.275 199.193 26.819 198.809 26.243C198.425 25.667 198.233 25.003 198.233 24.251C198.233 23.051 198.681 22.123 199.577 21.467C200.489 20.795 201.737 20.459 203.321 20.459C204.409 20.459 205.433 20.627 206.393 20.963V20.051C206.393 19.331 206.169 18.787 205.721 18.419C205.273 18.051 204.617 17.867 203.753 17.867C203.225 17.867 202.657 17.955 202.049 18.131C201.441 18.291 200.737 18.547 199.937 18.899L198.737 16.475C199.729 16.027 200.673 15.691 201.569 15.467C202.481 15.243 203.393 15.131 204.305 15.131C205.985 15.131 207.289 15.539 208.217 16.355C209.161 17.155 209.633 18.291 209.633 19.763V27.875H206.393V26.987C205.881 27.371 205.329 27.651 204.737 27.827C204.145 28.003 203.497 28.091 202.793 28.091ZM201.353 24.179C201.353 24.659 201.561 25.043 201.977 25.331C202.393 25.603 202.945 25.739 203.633 25.739C204.177 25.739 204.681 25.675 205.145 25.547C205.609 25.403 206.025 25.195 206.393 24.923V23.099C205.993 22.939 205.577 22.819 205.145 22.739C204.713 22.659 204.249 22.619 203.753 22.619C203.001 22.619 202.409 22.763 201.977 23.051C201.561 23.323 201.353 23.699 201.353 24.179ZM218.169 33.011C217.209 33.011 216.281 32.907 215.385 32.699C214.489 32.507 213.681 32.227 212.961 31.859L214.113 29.315C214.801 29.651 215.473 29.899 216.129 30.059C216.785 30.219 217.441 30.299 218.097 30.299C219.073 30.299 219.809 30.091 220.305 29.675C220.817 29.259 221.073 28.635 221.073 27.803V26.819C220.049 27.571 218.905 27.947 217.641 27.947C216.457 27.947 215.385 27.667 214.425 27.107C213.481 26.531 212.721 25.755 212.145 24.779C211.585 23.803 211.305 22.723 211.305 21.539C211.305 20.355 211.585 19.283 212.145 18.323C212.721 17.363 213.497 16.603 214.473 16.043C215.449 15.467 216.537 15.179 217.737 15.179C218.345 15.179 218.937 15.267 219.513 15.443C220.089 15.619 220.625 15.867 221.121 16.187V15.371H224.361V27.851C224.361 29.499 223.825 30.771 222.753 31.667C221.697 32.563 220.169 33.011 218.169 33.011ZM218.145 25.163C218.753 25.163 219.305 25.067 219.801 24.875C220.297 24.667 220.721 24.379 221.073 24.011V19.115C220.721 18.763 220.289 18.491 219.777 18.299C219.281 18.091 218.745 17.987 218.169 17.987C217.481 17.987 216.865 18.147 216.321 18.467C215.777 18.771 215.345 19.195 215.025 19.739C214.705 20.267 214.545 20.867 214.545 21.539C214.545 22.227 214.697 22.843 215.001 23.387C215.321 23.931 215.753 24.363 216.297 24.683C216.857 25.003 217.473 25.163 218.145 25.163ZM232.808 28.115C231.56 28.115 230.424 27.827 229.4 27.251C228.392 26.675 227.592 25.899 227 24.923C226.408 23.947 226.112 22.851 226.112 21.635C226.112 20.419 226.392 19.323 226.952 18.347C227.528 17.371 228.304 16.595 229.28 16.019C230.256 15.443 231.344 15.155 232.544 15.155C233.744 15.155 234.808 15.451 235.736 16.043C236.664 16.635 237.392 17.435 237.92 18.443C238.464 19.451 238.736 20.595 238.736 21.875V22.739H229.472C229.616 23.235 229.848 23.683 230.168 24.083C230.504 24.483 230.912 24.795 231.392 25.019C231.888 25.243 232.416 25.355 232.976 25.355C233.536 25.355 234.048 25.267 234.512 25.091C234.992 24.915 235.4 24.667 235.736 24.347L237.896 26.315C237.128 26.939 236.336 27.395 235.52 27.683C234.72 27.971 233.816 28.115 232.808 28.115ZM229.424 20.387H235.496C235.384 19.891 235.176 19.459 234.872 19.091C234.584 18.707 234.232 18.411 233.816 18.203C233.416 17.979 232.968 17.867 232.472 17.867C231.96 17.867 231.496 17.971 231.08 18.179C230.664 18.387 230.312 18.683 230.024 19.067C229.752 19.435 229.552 19.875 229.424 20.387ZM245.308 28.115C244.156 28.115 243.092 27.971 242.116 27.683C241.14 27.379 240.292 26.947 239.572 26.387L241.204 24.203C241.924 24.683 242.612 25.043 243.268 25.283C243.94 25.523 244.604 25.643 245.26 25.643C245.996 25.643 246.58 25.523 247.012 25.283C247.46 25.027 247.684 24.699 247.684 24.299C247.684 23.979 247.556 23.723 247.3 23.531C247.06 23.339 246.668 23.203 246.124 23.123L243.724 22.763C242.476 22.571 241.532 22.171 240.892 21.563C240.252 20.939 239.932 20.123 239.932 19.115C239.932 18.299 240.14 17.603 240.556 17.027C240.988 16.435 241.588 15.979 242.356 15.659C243.14 15.323 244.068 15.155 245.14 15.155C246.052 15.155 246.94 15.283 247.804 15.539C248.684 15.795 249.508 16.187 250.276 16.715L248.692 18.851C248.004 18.419 247.348 18.107 246.724 17.915C246.1 17.723 245.468 17.627 244.828 17.627C244.236 17.627 243.756 17.739 243.388 17.963C243.036 18.187 242.86 18.483 242.86 18.851C242.86 19.187 242.988 19.451 243.244 19.643C243.5 19.835 243.94 19.971 244.564 20.051L246.94 20.411C248.188 20.587 249.14 20.987 249.796 21.611C250.452 22.219 250.78 23.011 250.78 23.987C250.78 24.787 250.54 25.499 250.06 26.123C249.58 26.731 248.932 27.219 248.116 27.587C247.3 27.939 246.364 28.115 245.308 28.115Z" fill="#25324B"/>
<defs>
<clipPath id="clip0_160_1331">
<rect width="35" height="35" fill="white" transform="translate(0 2.125)"/>
</clipPath>
</defs>
</svg>
