<svg width="254" height="37" viewBox="0 0 254 37" fill="none" xmlns="http://www.w3.org/2000/svg">
<path d="M47.512 27V10.2H55.408C56.544 10.2 57.536 10.392 58.384 10.776C59.232 11.16 59.896 11.704 60.376 12.408C60.856 13.096 61.096 13.896 61.096 14.808C61.096 15.544 60.904 16.224 60.52 16.848C60.152 17.456 59.648 17.952 59.008 18.336C59.824 18.72 60.472 19.24 60.952 19.896C61.432 20.552 61.672 21.296 61.672 22.128C61.672 23.088 61.424 23.936 60.928 24.672C60.448 25.408 59.76 25.984 58.864 26.4C57.984 26.8 56.96 27 55.792 27H47.512ZM50.992 17.064H55.192C55.944 17.064 56.536 16.888 56.968 16.536C57.416 16.168 57.64 15.68 57.64 15.072C57.64 14.464 57.416 13.984 56.968 13.632C56.536 13.264 55.944 13.08 55.192 13.08H50.992V17.064ZM50.992 24.12H55.528C56.328 24.12 56.968 23.928 57.448 23.544C57.928 23.144 58.168 22.616 58.168 21.96C58.168 21.288 57.928 20.76 57.448 20.376C56.968 19.976 56.328 19.776 55.528 19.776H50.992V24.12ZM69.5114 27.24C68.2634 27.24 67.1354 26.952 66.1274 26.376C65.1194 25.8 64.3194 25.024 63.7274 24.048C63.1354 23.072 62.8394 21.976 62.8394 20.76C62.8394 19.544 63.1274 18.448 63.7034 17.472C64.2954 16.48 65.0954 15.696 66.1034 15.12C67.1274 14.544 68.2634 14.256 69.5114 14.256C70.7594 14.256 71.8874 14.544 72.8954 15.12C73.9194 15.696 74.7194 16.48 75.2954 17.472C75.8874 18.448 76.1834 19.544 76.1834 20.76C76.1834 21.976 75.8874 23.072 75.2954 24.048C74.7194 25.024 73.9274 25.8 72.9194 26.376C71.9114 26.952 70.7754 27.24 69.5114 27.24ZM69.5114 24.384C70.1674 24.384 70.7514 24.224 71.2634 23.904C71.7914 23.584 72.2074 23.152 72.5114 22.608C72.8314 22.048 72.9914 21.432 72.9914 20.76C72.9914 20.072 72.8314 19.456 72.5114 18.912C72.2074 18.368 71.7914 17.936 71.2634 17.616C70.7514 17.28 70.1674 17.112 69.5114 17.112C68.8714 17.112 68.2874 17.28 67.7594 17.616C67.2314 17.936 66.8154 18.368 66.5114 18.912C66.2074 19.456 66.0554 20.072 66.0554 20.76C66.0554 21.432 66.2074 22.048 66.5114 22.608C66.8154 23.152 67.2314 23.584 67.7594 23.904C68.2874 24.224 68.8714 24.384 69.5114 24.384ZM82.8124 27.24C81.8524 27.24 80.9964 27.032 80.2444 26.616C79.5084 26.184 78.9244 25.592 78.4924 24.84C78.0764 24.088 77.8684 23.224 77.8684 22.248V14.496H81.1564V21.768C81.1564 22.568 81.3884 23.208 81.8524 23.688C82.3324 24.168 82.9724 24.408 83.7724 24.408C84.3164 24.408 84.8044 24.304 85.2364 24.096C85.6844 23.872 86.0524 23.56 86.3404 23.16V14.496H89.6284V27H86.3404V25.992C85.3804 26.824 84.2044 27.24 82.8124 27.24ZM91.951 27V14.496H95.239V15.888C95.639 15.344 96.119 14.928 96.679 14.64C97.239 14.352 97.871 14.208 98.575 14.208C99.183 14.224 99.639 14.32 99.943 14.496V17.376C99.703 17.264 99.439 17.184 99.151 17.136C98.863 17.072 98.567 17.04 98.263 17.04C97.623 17.04 97.039 17.2 96.511 17.52C95.983 17.84 95.559 18.296 95.239 18.888V27H91.951ZM106.329 27.24C105.177 27.24 104.113 27.096 103.137 26.808C102.161 26.504 101.313 26.072 100.593 25.512L102.225 23.328C102.945 23.808 103.633 24.168 104.289 24.408C104.961 24.648 105.625 24.768 106.281 24.768C107.017 24.768 107.601 24.648 108.033 24.408C108.481 24.152 108.705 23.824 108.705 23.424C108.705 23.104 108.577 22.848 108.321 22.656C108.081 22.464 107.689 22.328 107.145 22.248L104.745 21.888C103.497 21.696 102.553 21.296 101.913 20.688C101.273 20.064 100.953 19.248 100.953 18.24C100.953 17.424 101.161 16.728 101.577 16.152C102.009 15.56 102.609 15.104 103.377 14.784C104.161 14.448 105.089 14.28 106.161 14.28C107.073 14.28 107.961 14.408 108.825 14.664C109.705 14.92 110.529 15.312 111.297 15.84L109.713 17.976C109.025 17.544 108.369 17.232 107.745 17.04C107.121 16.848 106.489 16.752 105.849 16.752C105.257 16.752 104.777 16.864 104.409 17.088C104.057 17.312 103.881 17.608 103.881 17.976C103.881 18.312 104.009 18.576 104.265 18.768C104.521 18.96 104.961 19.096 105.585 19.176L107.961 19.536C109.209 19.712 110.161 20.112 110.817 20.736C111.473 21.344 111.801 22.136 111.801 23.112C111.801 23.912 111.561 24.624 111.081 25.248C110.601 25.856 109.953 26.344 109.137 26.712C108.321 27.064 107.385 27.24 106.329 27.24ZM119.435 27.24C118.187 27.24 117.051 26.952 116.027 26.376C115.019 25.8 114.219 25.024 113.627 24.048C113.035 23.072 112.739 21.976 112.739 20.76C112.739 19.544 113.019 18.448 113.579 17.472C114.155 16.496 114.931 15.72 115.907 15.144C116.883 14.568 117.971 14.28 119.171 14.28C120.371 14.28 121.435 14.576 122.363 15.168C123.291 15.76 124.019 16.56 124.547 17.568C125.091 18.576 125.363 19.72 125.363 21V21.864H116.099C116.243 22.36 116.475 22.808 116.795 23.208C117.131 23.608 117.539 23.92 118.019 24.144C118.515 24.368 119.043 24.48 119.603 24.48C120.163 24.48 120.675 24.392 121.139 24.216C121.619 24.04 122.027 23.792 122.363 23.472L124.523 25.44C123.755 26.064 122.963 26.52 122.147 26.808C121.347 27.096 120.443 27.24 119.435 27.24ZM116.051 19.512H122.123C122.011 19.016 121.803 18.584 121.499 18.216C121.211 17.832 120.859 17.536 120.443 17.328C120.043 17.104 119.595 16.992 119.099 16.992C118.587 16.992 118.123 17.096 117.707 17.304C117.291 17.512 116.939 17.808 116.651 18.192C116.379 18.56 116.179 19 116.051 19.512ZM135.709 27.216C134.813 27.216 134.021 27.056 133.333 26.736C132.645 26.4 132.109 25.944 131.725 25.368C131.341 24.792 131.149 24.128 131.149 23.376C131.149 22.176 131.597 21.248 132.493 20.592C133.405 19.92 134.653 19.584 136.237 19.584C137.325 19.584 138.349 19.752 139.309 20.088V19.176C139.309 18.456 139.085 17.912 138.637 17.544C138.189 17.176 137.533 16.992 136.669 16.992C136.141 16.992 135.573 17.08 134.965 17.256C134.357 17.416 133.653 17.672 132.853 18.024L131.653 15.6C132.645 15.152 133.589 14.816 134.485 14.592C135.397 14.368 136.309 14.256 137.221 14.256C138.901 14.256 140.205 14.664 141.133 15.48C142.077 16.28 142.549 17.416 142.549 18.888V27H139.309V26.112C138.797 26.496 138.245 26.776 137.653 26.952C137.061 27.128 136.413 27.216 135.709 27.216ZM134.269 23.304C134.269 23.784 134.477 24.168 134.893 24.456C135.309 24.728 135.861 24.864 136.549 24.864C137.093 24.864 137.597 24.8 138.061 24.672C138.525 24.528 138.941 24.32 139.309 24.048V22.224C138.909 22.064 138.493 21.944 138.061 21.864C137.629 21.784 137.165 21.744 136.669 21.744C135.917 21.744 135.325 21.888 134.893 22.176C134.477 22.448 134.269 22.824 134.269 23.304ZM149.529 27.24C148.569 27.24 147.713 27.032 146.961 26.616C146.225 26.184 145.641 25.592 145.209 24.84C144.793 24.088 144.585 23.224 144.585 22.248V14.496H147.873V21.768C147.873 22.568 148.105 23.208 148.569 23.688C149.049 24.168 149.689 24.408 150.489 24.408C151.033 24.408 151.521 24.304 151.953 24.096C152.401 23.872 152.769 23.56 153.057 23.16V14.496H156.345V27H153.057V25.992C152.097 26.824 150.921 27.24 149.529 27.24ZM157.323 27L162.123 20.64L157.443 14.496H161.259L164.019 18.216L166.755 14.496H170.451L165.843 20.592L170.739 27H166.899L163.947 23.016L160.995 27H157.323ZM182.544 27.24C181.184 27.24 179.856 26.992 178.56 26.496C177.264 25.984 176.112 25.264 175.104 24.336L177.096 21.84C178.072 22.704 179.008 23.328 179.904 23.712C180.816 24.096 181.776 24.288 182.784 24.288C183.488 24.288 184.096 24.208 184.608 24.048C185.12 23.872 185.512 23.624 185.784 23.304C186.072 22.984 186.216 22.608 186.216 22.176C186.216 21.6 186.008 21.16 185.592 20.856C185.176 20.536 184.464 20.288 183.456 20.112L180.12 19.536C178.696 19.296 177.608 18.792 176.856 18.024C176.12 17.256 175.752 16.264 175.752 15.048C175.752 14.008 176.016 13.104 176.544 12.336C177.088 11.568 177.848 10.984 178.824 10.584C179.816 10.168 180.992 9.96 182.352 9.96C183.584 9.96 184.808 10.168 186.024 10.584C187.256 11 188.344 11.576 189.288 12.312L187.416 14.904C185.656 13.56 183.888 12.888 182.112 12.888C181.488 12.888 180.944 12.968 180.48 13.128C180.016 13.288 179.656 13.512 179.4 13.8C179.16 14.072 179.04 14.4 179.04 14.784C179.04 15.296 179.224 15.696 179.592 15.984C179.96 16.256 180.576 16.464 181.44 16.608L184.608 17.136C186.288 17.408 187.544 17.944 188.376 18.744C189.208 19.528 189.624 20.568 189.624 21.864C189.624 22.952 189.336 23.904 188.76 24.72C188.184 25.52 187.36 26.144 186.288 26.592C185.232 27.024 183.984 27.24 182.544 27.24ZM196.805 27.192C195.413 27.192 194.357 26.88 193.637 26.256C192.933 25.616 192.581 24.688 192.581 23.472V17.232H190.013V14.496H192.581V11.304L195.869 10.56V14.496H199.445V17.232H195.869V22.8C195.869 23.376 195.997 23.792 196.253 24.048C196.509 24.288 196.957 24.408 197.597 24.408C197.917 24.408 198.205 24.392 198.461 24.36C198.733 24.312 199.029 24.232 199.349 24.12V26.832C199.013 26.944 198.589 27.032 198.077 27.096C197.581 27.16 197.157 27.192 196.805 27.192ZM204.793 27.216C203.897 27.216 203.105 27.056 202.417 26.736C201.729 26.4 201.193 25.944 200.809 25.368C200.425 24.792 200.233 24.128 200.233 23.376C200.233 22.176 200.681 21.248 201.577 20.592C202.489 19.92 203.737 19.584 205.321 19.584C206.409 19.584 207.433 19.752 208.393 20.088V19.176C208.393 18.456 208.169 17.912 207.721 17.544C207.273 17.176 206.617 16.992 205.753 16.992C205.225 16.992 204.657 17.08 204.049 17.256C203.441 17.416 202.737 17.672 201.937 18.024L200.737 15.6C201.729 15.152 202.673 14.816 203.569 14.592C204.481 14.368 205.393 14.256 206.305 14.256C207.985 14.256 209.289 14.664 210.217 15.48C211.161 16.28 211.633 17.416 211.633 18.888V27H208.393V26.112C207.881 26.496 207.329 26.776 206.737 26.952C206.145 27.128 205.497 27.216 204.793 27.216ZM203.353 23.304C203.353 23.784 203.561 24.168 203.977 24.456C204.393 24.728 204.945 24.864 205.633 24.864C206.177 24.864 206.681 24.8 207.145 24.672C207.609 24.528 208.025 24.32 208.393 24.048V22.224C207.993 22.064 207.577 21.944 207.145 21.864C206.713 21.784 206.249 21.744 205.753 21.744C205.001 21.744 204.409 21.888 203.977 22.176C203.561 22.448 203.353 22.824 203.353 23.304ZM220.169 32.136C219.209 32.136 218.281 32.032 217.385 31.824C216.489 31.632 215.681 31.352 214.961 30.984L216.113 28.44C216.801 28.776 217.473 29.024 218.129 29.184C218.785 29.344 219.441 29.424 220.097 29.424C221.073 29.424 221.809 29.216 222.305 28.8C222.817 28.384 223.073 27.76 223.073 26.928V25.944C222.049 26.696 220.905 27.072 219.641 27.072C218.457 27.072 217.385 26.792 216.425 26.232C215.481 25.656 214.721 24.88 214.145 23.904C213.585 22.928 213.305 21.848 213.305 20.664C213.305 19.48 213.585 18.408 214.145 17.448C214.721 16.488 215.497 15.728 216.473 15.168C217.449 14.592 218.537 14.304 219.737 14.304C220.345 14.304 220.937 14.392 221.513 14.568C222.089 14.744 222.625 14.992 223.121 15.312V14.496H226.361V26.976C226.361 28.624 225.825 29.896 224.753 30.792C223.697 31.688 222.169 32.136 220.169 32.136ZM220.145 24.288C220.753 24.288 221.305 24.192 221.801 24C222.297 23.792 222.721 23.504 223.073 23.136V18.24C222.721 17.888 222.289 17.616 221.777 17.424C221.281 17.216 220.745 17.112 220.169 17.112C219.481 17.112 218.865 17.272 218.321 17.592C217.777 17.896 217.345 18.32 217.025 18.864C216.705 19.392 216.545 19.992 216.545 20.664C216.545 21.352 216.697 21.968 217.001 22.512C217.321 23.056 217.753 23.488 218.297 23.808C218.857 24.128 219.473 24.288 220.145 24.288ZM234.808 27.24C233.56 27.24 232.424 26.952 231.4 26.376C230.392 25.8 229.592 25.024 229 24.048C228.408 23.072 228.112 21.976 228.112 20.76C228.112 19.544 228.392 18.448 228.952 17.472C229.528 16.496 230.304 15.72 231.28 15.144C232.256 14.568 233.344 14.28 234.544 14.28C235.744 14.28 236.808 14.576 237.736 15.168C238.664 15.76 239.392 16.56 239.92 17.568C240.464 18.576 240.736 19.72 240.736 21V21.864H231.472C231.616 22.36 231.848 22.808 232.168 23.208C232.504 23.608 232.912 23.92 233.392 24.144C233.888 24.368 234.416 24.48 234.976 24.48C235.536 24.48 236.048 24.392 236.512 24.216C236.992 24.04 237.4 23.792 237.736 23.472L239.896 25.44C239.128 26.064 238.336 26.52 237.52 26.808C236.72 27.096 235.816 27.24 234.808 27.24ZM231.424 19.512H237.496C237.384 19.016 237.176 18.584 236.872 18.216C236.584 17.832 236.232 17.536 235.816 17.328C235.416 17.104 234.968 16.992 234.472 16.992C233.96 16.992 233.496 17.096 233.08 17.304C232.664 17.512 232.312 17.808 232.024 18.192C231.752 18.56 231.552 19 231.424 19.512ZM247.308 27.24C246.156 27.24 245.092 27.096 244.116 26.808C243.14 26.504 242.292 26.072 241.572 25.512L243.204 23.328C243.924 23.808 244.612 24.168 245.268 24.408C245.94 24.648 246.604 24.768 247.26 24.768C247.996 24.768 248.58 24.648 249.012 24.408C249.46 24.152 249.684 23.824 249.684 23.424C249.684 23.104 249.556 22.848 249.3 22.656C249.06 22.464 248.668 22.328 248.124 22.248L245.724 21.888C244.476 21.696 243.532 21.296 242.892 20.688C242.252 20.064 241.932 19.248 241.932 18.24C241.932 17.424 242.14 16.728 242.556 16.152C242.988 15.56 243.588 15.104 244.356 14.784C245.14 14.448 246.068 14.28 247.14 14.28C248.052 14.28 248.94 14.408 249.804 14.664C250.684 14.92 251.508 15.312 252.276 15.84L250.692 17.976C250.004 17.544 249.348 17.232 248.724 17.04C248.1 16.848 247.468 16.752 246.828 16.752C246.236 16.752 245.756 16.864 245.388 17.088C245.036 17.312 244.86 17.608 244.86 17.976C244.86 18.312 244.988 18.576 245.244 18.768C245.5 18.96 245.94 19.096 246.564 19.176L248.94 19.536C250.188 19.712 251.14 20.112 251.796 20.736C252.452 21.344 252.78 22.136 252.78 23.112C252.78 23.912 252.54 24.624 252.06 25.248C251.58 25.856 250.932 26.344 250.116 26.712C249.3 27.064 248.364 27.24 247.308 27.24Z" fill="white"/>
<g clip-path="url(#clip0_2_1288)">
<path d="M17.5107 36.2714C27.1816 36.2714 35.0214 28.4316 35.0214 18.7607C35.0214 9.0898 27.1816 1.25 17.5107 1.25C7.8398 1.25 0 9.0898 0 18.7607C0 28.4316 7.8398 36.2714 17.5107 36.2714Z" fill="#4640DE"/>
<path d="M17.6176 25.0465C15.843 25.0465 14.3464 24.6617 13.1277 23.9134C11.909 23.165 11.0538 22.1388 10.562 20.8559L13.5981 19.1883C14.3036 20.9201 15.672 21.7753 17.7245 21.7753C18.708 21.7753 19.4349 21.6043 19.9053 21.2622C20.3757 20.9201 20.5895 20.4925 20.5895 19.9793C20.5895 19.3807 20.3116 18.9103 19.7343 18.5896C19.1784 18.2689 18.1521 17.9054 16.6982 17.5206C15.8858 17.2854 15.223 17.0716 14.6671 16.8364C14.1112 16.6012 13.5553 16.3019 12.9994 15.9384C12.4435 15.5536 12.0159 15.0832 11.7379 14.5059C11.46 13.9286 11.3103 13.2445 11.3103 12.4748C11.3103 10.9354 11.8876 9.71666 13.0422 8.81867C14.1967 7.92069 15.5864 7.45032 17.2114 7.45032C18.6652 7.45032 19.9481 7.79241 21.0385 8.4552C22.1503 9.118 23.0055 10.0587 23.6255 11.2561L20.6536 12.881C19.9267 11.4271 18.7935 10.7002 17.2114 10.7002C16.4844 10.7002 15.9072 10.8498 15.4795 11.1705C15.0519 11.4912 14.8595 11.8975 14.8595 12.3892C14.8595 12.9237 15.0947 13.3514 15.5651 13.6721C16.0354 13.9928 16.9334 14.3562 18.2804 14.7411C18.8363 14.9121 19.2425 15.019 19.5205 15.1259C19.7984 15.2115 20.1833 15.3611 20.675 15.5322C21.1668 15.7246 21.5302 15.8956 21.8082 16.0453C22.0648 16.2164 22.3855 16.4302 22.7276 16.7081C23.0696 16.9861 23.3262 17.264 23.5186 17.5633C23.7111 17.8627 23.8607 18.2047 23.989 18.611C24.1173 19.0172 24.1814 19.4662 24.1814 19.958C24.1814 21.5187 23.5828 22.7588 22.3641 23.6782C21.1668 24.5975 19.5846 25.0465 17.6604 25.0465H17.6176Z" fill="white"/>
<path d="M17.5109 31.4393C20.3118 31.4393 23.134 29.2158 24.9514 27.4198C25.379 26.9922 24.8658 26.3935 24.3313 26.6715C22.3429 27.7191 19.6276 28.9164 17.4895 28.9164C15.3515 28.9164 12.6361 27.7191 10.6478 26.6715C10.1132 26.3935 9.62149 26.9922 10.0277 27.4198C11.8451 29.2371 14.6673 31.4393 17.4682 31.4393H17.5109Z" fill="#26A4FF"/>
</g>
<defs>
<clipPath id="clip0_2_1288">
<rect width="35" height="35" fill="white" transform="translate(0 1.25)"/>
</clipPath>
</defs>
</svg>
