<svg width="25" height="24" viewBox="0 0 25 24" fill="none" xmlns="http://www.w3.org/2000/svg">
<path fill-rule="evenodd" clip-rule="evenodd" d="M4.66797 12C4.66797 11.4477 5.11568 11 5.66797 11H19.668C20.2203 11 20.668 11.4477 20.668 12C20.668 12.5523 20.2203 13 19.668 13H5.66797C5.11568 13 4.66797 12.5523 4.66797 12Z" fill="#25324B"/>
<path fill-rule="evenodd" clip-rule="evenodd" d="M4.96086 11.2929C5.35139 10.9024 5.98455 10.9024 6.37508 11.2929L12.3751 17.2929C12.7656 17.6834 12.7656 18.3166 12.3751 18.7071C11.9846 19.0976 11.3514 19.0976 10.9609 18.7071L4.96086 12.7071C4.57034 12.3166 4.57034 11.6834 4.96086 11.2929Z" fill="#25324B"/>
<path fill-rule="evenodd" clip-rule="evenodd" d="M12.3751 5.29289C12.7656 5.68342 12.7656 6.31658 12.3751 6.70711L6.37508 12.7071C5.98455 13.0976 5.35139 13.0976 4.96086 12.7071C4.57034 12.3166 4.57034 11.6834 4.96086 11.2929L10.9609 5.29289C11.3514 4.90237 11.9846 4.90237 12.3751 5.29289Z" fill="#25324B"/>
</svg>
