<svg width="24" height="24" viewBox="0 0 24 24" fill="none" xmlns="http://www.w3.org/2000/svg">
<g clip-path="url(#clip0_151_3851)">
<path d="M10 14C10.3259 14.3326 10.7148 14.5968 11.1441 14.7772C11.5734 14.9576 12.0344 15.0505 12.5 15.0505C12.9656 15.0505 13.4266 14.9576 13.8559 14.7772C14.2852 14.5968 14.6741 14.3326 15 14L19 10C19.663 9.33696 20.0355 8.43768 20.0355 7.5C20.0355 6.56232 19.663 5.66304 19 5C18.337 4.33696 17.4377 3.96447 16.5 3.96447C15.5623 3.96447 14.663 4.33696 14 5L13.5 5.5" stroke="#7C8493" stroke-width="2" stroke-linecap="round" stroke-linejoin="round"/>
<path d="M13.9999 10C13.674 9.6674 13.285 9.40317 12.8558 9.22279C12.4265 9.0424 11.9655 8.94949 11.4999 8.94949C11.0343 8.94949 10.5733 9.0424 10.144 9.22279C9.71474 9.40317 9.32577 9.6674 8.99989 10L4.99989 14C4.33685 14.663 3.96436 15.5623 3.96436 16.5C3.96436 17.4377 4.33685 18.337 4.99989 19C5.66293 19.663 6.56221 20.0355 7.49989 20.0355C8.43757 20.0355 9.33685 19.663 9.99989 19L10.4999 18.5" stroke="#7C8493" stroke-width="2" stroke-linecap="round" stroke-linejoin="round"/>
</g>
<defs>
<clipPath id="clip0_151_3851">
<rect width="24" height="24" fill="white"/>
</clipPath>
</defs>
</svg>
