<svg width="33" height="34" viewBox="0 0 33 34" fill="none" xmlns="http://www.w3.org/2000/svg">
<g clip-path="url(#clip0_124_2797)">
<path d="M8.66797 21.147C10.8771 21.147 12.668 19.2903 12.668 17C12.668 14.7096 10.8771 12.8529 8.66797 12.8529C6.45883 12.8529 4.66797 14.7096 4.66797 17C4.66797 19.2903 6.45883 21.147 8.66797 21.147Z" stroke="#7C8493" stroke-width="2" stroke-linecap="round" stroke-linejoin="round"/>
<path d="M24.668 12.853C26.8771 12.853 28.668 10.9963 28.668 8.7059C28.668 6.41554 26.8771 4.55884 24.668 4.55884C22.4588 4.55884 20.668 6.41554 20.668 8.7059C20.668 10.9963 22.4588 12.853 24.668 12.853Z" stroke="#7C8493" stroke-width="2" stroke-linecap="round" stroke-linejoin="round"/>
<path d="M24.668 29.4412C26.8771 29.4412 28.668 27.5845 28.668 25.2942C28.668 23.0038 26.8771 21.1471 24.668 21.1471C22.4588 21.1471 20.668 23.0038 20.668 25.2942C20.668 27.5845 22.4588 29.4412 24.668 29.4412Z" stroke="#7C8493" stroke-width="2" stroke-linecap="round" stroke-linejoin="round"/>
<path d="M12.2681 15.2029L21.0681 10.5029" stroke="#7C8493" stroke-width="2" stroke-linecap="round" stroke-linejoin="round"/>
<path d="M12.2681 18.797L21.0681 23.497" stroke="#7C8493" stroke-width="2" stroke-linecap="round" stroke-linejoin="round"/>
</g>
<defs>
<clipPath id="clip0_124_2797">
<rect width="32" height="33.1765" fill="white" transform="translate(0.667969 0.411743)"/>
</clipPath>
</defs>
</svg>
