<svg width="57" height="57" viewBox="0 0 57 57" fill="none" xmlns="http://www.w3.org/2000/svg">
<circle cx="28.464" cy="28.0184" r="28" transform="rotate(0.0376019 28.464 28.0184)" fill="#4640DE"/>
<path d="M37.4633 29.2793C34.603 30.4336 31.5466 31.0241 28.4622 31.0184C25.2792 31.0163 22.2426 30.3943 19.4633 29.2674M28.4641 28.0184L28.4741 28.0184M32.4681 22.021L32.4694 20.021C32.4697 19.4905 32.2594 18.9817 31.8845 18.6064C31.5097 18.2311 31.0011 18.02 30.4707 18.0197L26.4707 18.017C25.9403 18.0167 25.4314 18.2271 25.0561 18.6019C24.6808 18.9767 24.4697 19.4853 24.4694 20.0157L24.4681 22.0157L32.4681 22.021ZM21.4589 36.0138L35.4589 36.0229C35.9893 36.0233 36.4982 35.8129 36.8735 35.4381C37.2488 35.0633 37.4599 34.5547 37.4602 34.0243L37.4668 24.0243C37.4671 23.4938 37.2567 22.985 36.8819 22.6097C36.5071 22.2343 35.9985 22.0233 35.4681 22.023L21.4681 22.0138C20.9376 22.0134 20.4288 22.2238 20.0535 22.5986C19.6782 22.9734 19.4671 23.482 19.4668 24.0125L19.4602 34.0124C19.4599 34.5429 19.6702 35.0517 20.0451 35.427C20.4199 35.8024 20.9285 36.0134 21.4589 36.0138Z" stroke="white" stroke-width="2" stroke-linecap="round" stroke-linejoin="round"/>
</svg>
