<svg width="57" height="57" viewBox="0 0 57 57" fill="none" xmlns="http://www.w3.org/2000/svg">
<circle cx="28.5012" cy="28.0184" r="28" transform="rotate(0.0376019 28.5012 28.0184)" fill="#E9EBFD"/>
<path d="M25.5059 21.0164L23.5059 21.0151C22.9754 21.0148 22.4666 21.2251 22.0913 21.6C21.7159 21.9748 21.5049 22.4834 21.5045 23.0138L21.4967 35.0138C21.4963 35.5442 21.7067 36.0531 22.0815 36.4284C22.4564 36.8037 22.9649 37.0148 23.4954 37.0151L33.4954 37.0217C34.0258 37.022 34.5346 36.8116 34.91 36.4368C35.2853 36.062 35.4963 35.5534 35.4967 35.023L35.5045 23.023C35.5049 22.4925 35.2945 21.9837 34.9197 21.6084C34.5449 21.2331 34.0363 21.022 33.5059 21.0217L31.5059 21.0204" stroke="#7C8493" stroke-width="2" stroke-linecap="round" stroke-linejoin="round"/>
<path d="M29.5068 19.019L27.5068 19.0177C26.4023 19.0169 25.5062 19.9118 25.5055 21.0164C25.5048 22.1209 26.3996 23.0169 27.5042 23.0177L29.5042 23.019C30.6088 23.0197 31.5048 22.1249 31.5055 21.0203C31.5062 19.9157 30.6114 19.0197 29.5068 19.019Z" stroke="#7C8493" stroke-width="2" stroke-linecap="round" stroke-linejoin="round"/>
<path d="M25.501 28.0164L25.511 28.0164" stroke="#7C8493" stroke-width="2" stroke-linecap="round" stroke-linejoin="round"/>
<path d="M29.501 28.019L31.501 28.0204" stroke="#7C8493" stroke-width="2" stroke-linecap="round" stroke-linejoin="round"/>
<path d="M25.498 32.0164L25.508 32.0164" stroke="#7C8493" stroke-width="2" stroke-linecap="round" stroke-linejoin="round"/>
<path d="M29.498 32.019L31.498 32.0204" stroke="#7C8493" stroke-width="2" stroke-linecap="round" stroke-linejoin="round"/>
</svg>
