<svg width="57" height="57" viewBox="0 0 57 57" fill="none" xmlns="http://www.w3.org/2000/svg">
<circle cx="28.5373" cy="28.0184" r="28" transform="rotate(0.0376019 28.5373 28.0184)" fill="#E9EBFD"/>
<path d="M36.54 24.0236L20.54 24.0131C19.9878 24.0127 19.5397 24.4602 19.5394 25.0125L19.5381 27.0125C19.5377 27.5647 19.9851 28.0127 20.5374 28.0131L36.5374 28.0236C37.0897 28.024 37.5377 27.5765 37.5381 27.0243L37.5394 25.0243C37.5397 24.472 37.0923 24.024 36.54 24.0236Z" stroke="#7C8493" stroke-width="2" stroke-linecap="round" stroke-linejoin="round"/>
<path d="M28.54 24.0184L28.5315 37.0184" stroke="#7C8493" stroke-width="2" stroke-linecap="round" stroke-linejoin="round"/>
<path d="M35.5371 28.023L35.5325 35.023C35.5322 35.5534 35.3211 36.062 34.9458 36.4368C34.5705 36.8116 34.0616 37.022 33.5312 37.0217L23.5312 37.0151C23.0008 37.0148 22.4922 36.8037 22.1174 36.4284C21.7425 36.0531 21.5322 35.5442 21.5325 35.0138L21.5371 28.0138" stroke="#7C8493" stroke-width="2" stroke-linecap="round" stroke-linejoin="round"/>
<path d="M24.0397 24.0154C23.3766 24.0149 22.7409 23.7511 22.2724 23.282C21.8039 22.8128 21.5409 22.1768 21.5413 21.5137C21.5418 20.8507 21.8056 20.215 22.2747 19.7465C22.7439 19.2779 23.3799 19.0149 24.043 19.0154C25.0077 18.9992 25.9527 19.4679 26.7548 20.3603C27.5569 21.2528 28.1789 22.5275 28.5397 24.0183C28.9024 22.528 29.5261 21.254 30.3293 20.3627C31.1326 19.4713 32.0783 19.0038 33.043 19.0213C33.706 19.0217 34.3417 19.2855 34.8103 19.7547C35.2788 20.2238 35.5418 20.8599 35.5413 21.5229C35.5409 22.186 35.2771 22.8217 34.8079 23.2902C34.3388 23.7587 33.7027 24.0217 33.0397 24.0213" stroke="#7C8493" stroke-width="2" stroke-linecap="round" stroke-linejoin="round"/>
</svg>
